:SAMPLES-PER-SECOND 30
:FULLY-SPECIFIED
:DEGREES
1155
root  47.8113 33.9548 -1.39325 -159.823 79.6932 -169.35
RightUpLeg  -46.2521 -5.08496 -2.46395
RightLeg  57.0756 -0.732046 -1.68129
RightFoot  -14.3219 -0.00152541 3.66679
RightToes  2.32829e-010 0 -3.6325e-017
Spine  89.4182 -24.7769 9.1288
Spine1  -41.6699 -19.7251 -28.8014
HEad  -24.7163 -5.90655 19.6813
LeftShoulder1  1.01079 -25.1623 5.62639
LeftArm  -33.4045 -51.9818 4.37677
LeftForeArm  -2.8255 -10.8511 -6.16127
LeftHand  -0.0337913 5.0003 2.69345
RightShoulder  6.06323 -15.9761 -62.4459
RightArm  -57.7616 45.1104 115.994
RightForeArm  15.4896 24.5039 4.62435
RightHand  -0.463479 3.91046 -6.04143
LeftUpLeg  -52.5007 1.29905 -1.96614
LeftLeg  54.3599 -3.05052 -4.0897
LeftFoot  -4.41772 -0.478965 8.34282
LeftToes  -3.54706e-010 1.16038e-010 5.28031e-012
1156
root  47.8135 34.5087 -1.3542 -155.727 79.9961 -166.252
RightUpLeg  -45.5879 -4.72237 -1.79084
RightLeg  53.5213 -0.695757 -1.40838
RightFoot  -12.46 -0.0480151 3.83579
RightToes  2.32829e-010 0 -3.6325e-017
Spine  83.8774 -21.4513 10.5323
Spine1  -31.7549 -14.8008 -24.7076
HEad  -32.032 -5.09046 14.1952
LeftShoulder1  1.22947 -21.4404 4.21337
LeftArm  -40.0787 -55.7754 3.12817
LeftForeArm  1.31957 -11.9862 -3.7135
LeftHand  -0.0564375 4.2537 3.64682
RightShoulder  4.61266 -11.867 -52.2743
RightArm  -38.1986 56.6616 108.332
RightForeArm  0.402162 18.8172 2.46473
RightHand  -0.472936 4.05999 -6.1091
LeftUpLeg  -51.4844 1.95589 -1.45666
LeftLeg  50.6974 -3.56803 -4.21325
LeftFoot  -3.19098 -0.603116 8.70581
LeftToes  -3.54706e-010 1.16038e-010 5.28031e-012
1157
root  47.7484 35.1395 -1.16049 -156.043 80.9292 -166.856
RightUpLeg  -44.2208 -4.02249 -1.90184
RightLeg  49.7112 -0.503873 -1.01794
RightFoot  -10.1438 -0.108033 4.00961
RightToes  2.32829e-010 0 -3.6325e-017
Spine  73.0463 -10.3418 10.4867
Spine1  -4.12249 -1.31151 -6.68702
HEad  -53.1537 -8.48972 1.53443
LeftShoulder1  0.68967 -12.6957 4.61907
LeftArm  -65.497 -66.0864 8.87101
LeftForeArm  1.58488 -12.5501 3.70383
LeftHand  -0.0911409 3.48022 4.67035
RightShoulder  -0.989218 6.04142 -14.3964
RightArm  -47.8478 59.8809 -0.422638
RightForeArm  -45.2361 -2.03332 -5.3332
RightHand  -0.503007 6.27886 -5.32255
LeftUpLeg  -49.2583 3.31588 -1.78222
LeftLeg  46.0897 -4.32894 -4.39161
LeftFoot  -1.38947 -0.78489 9.09984
LeftToes  -3.54706e-010 1.16038e-010 5.28031e-012
1158
root  47.6902 35.7828 -1.04913 -151.625 81.5079 -162.055
RightUpLeg  -41.9329 -4.85068 -0.821727
RightLeg  45.43 0.855149 0.60893
RightFoot  -7.57871 -0.18693 4.00184
RightToes  2.32829e-010 0 -3.6325e-017
Spine  70.0032 -10.6722 10.095
Spine1  -2.65914 -2.15398 -9.28522
HEad  -51.9502 -6.23261 0.720383
LeftShoulder1  1.38151 -10.9376 -1.18809
LeftArm  -52.2899 -67.9895 -0.0776294
LeftForeArm  2.58538 -11.1081 0.909376
LeftHand  -0.113818 3.0047 4.89692
RightShoulder  0.332441 4.95806 -5.06566
RightArm  -46.2831 69.2428 4.0589
RightForeArm  -39.1069 -1.79363 -1.59102
RightHand  -0.50319 7.13111 -4.9965
LeftUpLeg  -46.4399 4.66565 -1.22848
LeftLeg  41.6349 -5.03438 -4.39369
LeftFoot  0.212866 -0.908462 8.94744
LeftToes  -3.54706e-010 1.16038e-010 5.28031e-012
1159
root  47.6354 36.2772 -0.880153 -145.907 82.0754 -156.453
RightUpLeg  -40.6044 -5.51739 0.152611
RightLeg  42.0687 2.81783 2.42598
RightFoot  -5.56834 -0.277246 4.87508
RightToes  2.32829e-010 0 -3.6325e-017
Spine  66.0483 -9.30218 9.90093
Spine1  -0.961222 -1.19914 -9.34692
HEad  -50.3798 -4.26162 -7.07777
LeftShoulder1  1.96861 -10.7381 -6.10756
LeftArm  -37.2818 -66.7747 -15.1106
LeftForeArm  4.91767 -10.2669 -1.06865
LeftHand  -0.134763 2.77712 5.49466
RightShoulder  0.689567 4.22583 0.538258
RightArm  -31.3051 70.5052 19.2117
RightForeArm  -37.4449 -1.44704 0.332865
RightHand  -0.641524 7.91733 -5.95601
LeftUpLeg  -44.4896 5.95192 -0.597602
LeftLeg  37.7014 -5.76182 -4.39215
LeftFoot  1.56307 -1.00929 8.81997
LeftToes  -3.54706e-010 1.16038e-010 5.28031e-012
1160
root  47.5735 36.6928 -0.636094 -136.668 83.237 -147.18
RightUpLeg  -39.5368 -5.08378 0.763656
RightLeg  39.7565 5.9844 5.03106
RightFoot  -3.21527 -0.332692 4.30385
RightToes  2.32829e-010 0 -3.6325e-017
Spine  61.4114 -7.54124 9.14328
Spine1  1.94373 -0.00525749 -9.68524
HEad  -50.0052 -4.07543 -13.7566
LeftShoulder1  2.35868 -9.79857 -10.469
LeftArm  -26.0843 -63.2854 -26.2226
LeftForeArm  7.71357 -8.94879 -2.65084
LeftHand  -0.110711 3.07358 4.88208
RightShoulder  0.940615 3.82239 4.97958
RightArm  -18.1857 68.9858 33.425
RightForeArm  -35.2119 -1.06793 1.46036
RightHand  -0.64311 7.39241 -6.18226
LeftUpLeg  -42.561 8.14833 0.0232096
LeftLeg  34.1388 -6.5178 -4.38078
LeftFoot  2.63452 -1.08331 8.69173
LeftToes  -3.54706e-010 1.16038e-010 5.28031e-012
1161
root  47.4995 36.9514 -0.328057 -133.611 84.3072 -143.745
RightUpLeg  -38.2804 -4.433 -0.177012
RightLeg  39.6219 9.89983 8.45121
RightFoot  -3.60748 -0.503172 7.26075
RightToes  2.32829e-010 0 -3.6325e-017
Spine  57.3124 -5.87311 7.44201
Spine1  3.40904 0.865 -9.71343
HEad  -49.4003 -3.88957 -15.7306
LeftShoulder1  2.5724 -8.7044 -14.1704
LeftArm  -17.2644 -56.9686 -34.9847
LeftForeArm  9.9825 -7.55139 -4.17312
LeftHand  -0.0920016 3.42225 4.55596
RightShoulder  1.12743 3.60515 8.4454
RightArm  -8.81772 64.251 44.5945
RightForeArm  -32.563 0.202241 2.12909
RightHand  -0.580076 6.29083 -6.06889
LeftUpLeg  -40.7709 9.67673 0.0109418
LeftLeg  31.5167 -7.27061 -4.43559
LeftFoot  3.5756 -1.10642 8.26793
LeftToes  -3.54706e-010 1.16038e-010 5.28031e-012
1162
root  47.4423 37.046 0.0650947 -131.051 85.1564 -140.501
RightUpLeg  -37.0774 -2.57211 -1.5254
RightLeg  42.6731 10.3129 9.74104
RightFoot  -6.06314 -0.544083 10.6939
RightToes  2.32829e-010 0 -3.6325e-017
Spine  53.3315 -4.3418 6.13379
Spine1  3.93171 1.73691 -9.97868
HEad  -48.7459 -3.75803 -17.7117
LeftShoulder1  2.75696 -7.69657 -18.0108
LeftArm  -11.8536 -49.4904 -39.8075
LeftForeArm  12.5107 -5.55459 -5.52248
LeftHand  -0.0862776 3.58826 4.49819
RightShoulder  1.24105 3.05394 11.8131
RightArm  -2.58288 57.5852 50.9374
RightForeArm  -31.1863 1.63636 3.18692
RightHand  -0.738909 7.54265 -6.98407
LeftUpLeg  -39.4098 11.3551 0.181479
LeftLeg  30.318 -8.28403 -4.85188
LeftFoot  3.81593 -1.04215 7.64583
LeftToes  -3.54706e-010 1.16038e-010 5.28031e-012
1163
root  47.3272 37.1422 0.427848 -132.345 85.1782 -140.842
RightUpLeg  -35.4352 -1.77769 -2.54907
RightLeg  46.8976 8.1612 8.91465
RightFoot  -7.98121 -0.322743 9.10992
RightToes  2.32829e-010 0 -3.6325e-017
Spine  49.6211 -3.96302 6.14269
Spine1  4.56808 2.13598 -10.8739
HEad  -47.1701 -2.83563 -19.8965
LeftShoulder1  2.74672 -6.65932 -20.6507
LeftArm  -8.97102 -41.2656 -41.7497
LeftForeArm  14.3694 -3.42099 -6.42492
LeftHand  -0.0971244 3.51396 4.18389
RightShoulder  1.31818 2.51198 15.2431
RightArm  1.08886 50.4048 52.9917
RightForeArm  -28.6836 3.06696 4.27909
RightHand  -0.727269 7.62385 -6.82884
LeftUpLeg  -37.9007 12.2364 0.634642
LeftLeg  29.0156 -9.12608 -5.08939
LeftFoot  4.4331 -1.01181 7.10066
LeftToes  -3.54706e-010 1.16038e-010 5.28031e-012
1164
root  47.1907 37.219 0.857065 -136.634 84.9448 -144.359
RightUpLeg  -33.5639 -0.747814 -3.67947
RightLeg  50.9137 5.70762 7.14311
RightFoot  -8.9203 -0.202117 6.70851
RightToes  2.32829e-010 0 -3.6325e-017
Spine  46.0109 -3.56053 6.4341
Spine1  5.05167 2.58693 -11.7012
HEad  -45.8524 -2.24456 -20.0783
LeftShoulder1  2.72426 -5.56658 -23.7816
LeftArm  -8.51073 -32.9467 -41.2154
LeftForeArm  16.4131 -2.56281 -6.7334
LeftHand  -0.225424 1.49852 6.53291
RightShoulder  1.12925 0.979151 18.7477
RightArm  3.84605 43.1744 53.9783
RightForeArm  -26.5102 4.71424 5.25255
RightHand  -0.850917 7.91385 -7.77129
LeftUpLeg  -36.7247 12.6895 1.17932
LeftLeg  27.7475 -10.1289 -5.38735
LeftFoot  5.48097 -1.00398 6.5558
LeftToes  -3.54706e-010 1.16038e-010 5.28031e-012
1165
root  46.9991 37.2035 1.39505 -139.813 84.4487 -146.286
RightUpLeg  -30.7538 1.04462 -4.36044
RightLeg  54.1356 4.13887 5.76363
RightFoot  -10.179 -0.12622 5.65135
RightToes  2.32829e-010 0 -3.6325e-017
Spine  43.5279 -2.88948 6.72543
Spine1  5.13326 3.17163 -11.9984
HEad  -45.1949 -1.98036 -20.781
LeftShoulder1  2.66806 -5.0325 -25.0771
LeftArm  -8.40737 -23.5889 -40.4913
LeftForeArm  17.7599 -3.01844 -6.77032
LeftHand  -0.0700706 3.89449 4.31404
RightShoulder  0.906878 -0.193106 21.1719
RightArm  5.88515 35.9665 53.3661
RightForeArm  -25.0904 5.98934 6.13762
RightHand  -0.891911 8.31532 -7.90496
LeftUpLeg  -35.5813 13.2138 2.16806
LeftLeg  27.2656 -11.1719 -5.84316
LeftFoot  6.05752 -0.927515 5.81429
LeftToes  -3.54706e-010 1.16038e-010 5.28031e-012
1166
root  46.7543 37.1246 1.99878 -146.609 83.5063 -152.056
RightUpLeg  -27.6499 2.78993 -4.88509
RightLeg  56.264 3.923 5.8965
RightFoot  -11.8282 -0.0553281 5.60124
RightToes  2.32829e-010 0 -3.6325e-017
Spine  40.6986 -2.18631 6.85099
Spine1  5.5254 3.46862 -11.3693
HEad  -44.4551 -1.63422 -21.4265
LeftShoulder1  2.50539 -4.10517 -26.8971
LeftArm  -8.19503 -15.6894 -38.4994
LeftForeArm  17.6468 -2.90545 -6.86654
LeftHand  -0.0666523 3.8697 3.74472
RightShoulder  0.764015 -0.846475 22.652
RightArm  7.22261 29.1397 52.2268
RightForeArm  -24.2192 6.72089 6.71925
RightHand  -0.868105 8.16514 -7.78043
LeftUpLeg  -34.863 13.778 2.82002
LeftLeg  26.7346 -12.8924 -6.62591
LeftFoot  6.76042 -0.847451 5.0585
LeftToes  -3.54706e-010 1.16038e-010 5.28031e-012
